Coordinates
version=1
nRows=14
nColumns=42
inDegrees=yes

Units are S.I. units (second, meters, Newtons, ...)
If the header above contains a line with 'inDegrees', this indicates whether rotational values are in degrees (yes) or radians (no).

endheader
time	pelvis_tilt	pelvis_list	pelvis_rotation	pelvis_tx	pelvis_ty	pelvis_tz	hip_flexion_r	hip_adduction_r	hip_rotation_r	knee_angle_r	knee_adduction_r	knee_angle_r_beta	ankle_angle_r	subtalar_angle_r	mtp_angle_r	hip_flexion_l	hip_adduction_l	hip_rotation_l	knee_angle_l	knee_adduction_l	knee_angle_l_beta	ankle_angle_l	subtalar_angle_l	mtp_angle_l	lumbar_extension	lumbar_bending	lumbar_rotation	arm_flex_r	arm_add_r	arm_rot_r	elbow_flex_r	pro_sup_r	wrist_flex_r	wrist_dev_r	arm_flex_l	arm_add_l	arm_rot_l	elbow_flex_l	pro_sup_l	wrist_flex_l	wrist_dev_l
      2.83000000	      2.25666069	      6.56614627	      6.03129628	      0.08231474	      0.99623120	      0.31333911	      8.99486898	     -6.85505723	    -20.23445687	      9.53924104	      0.61207527	      0.16649116	     -1.28995376	      5.13701546	     -7.51448814	    -13.02672933	      1.44301052	      0.12379885	     24.13928731	      3.66830289	      0.42131004	      1.48099271	      4.34576816	     -7.51448814	    -17.14982484	     -7.61740940	     -8.88549488	    -11.43391001	    -12.55606281	     24.55782469	     38.82999846	     90.00000001	      0.00000000	      0.00000000	     12.01447657	    -23.02408281	     15.45489839	     48.52440386	     90.00000001	      0.00000000	      0.00000000
      2.84000000	      2.40968966	      6.67165263	      6.06764077	      0.08937962	      0.99761542	      0.31479090	      8.06794980	     -6.78501198	    -20.51374799	      8.99821251	      0.68963468	      0.15704844	     -1.03863081	      5.64570369	     -7.51420958	    -12.00532830	      0.99231683	      0.37271395	     26.84774145	      4.34836944	      0.46858149	      0.41887571	      3.51762670	     -7.51420958	    -17.35944294	     -7.72398853	     -8.77073073	    -10.84806552	    -12.62733391	     24.59273899	     38.98103045	     90.00000001	      0.00000000	      0.00000000	     11.50156306	    -23.09072794	     15.50384733	     48.43490232	     90.00000001	      0.00000000	      0.00000000
      2.85000000	      2.54127715	      6.75052885	      6.07677929	      0.09631068	      0.99880269	      0.31633374	      7.21162489	     -6.66345816	    -20.76702689	      8.49949073	      0.71852739	      0.14834410	     -0.82844755	      6.13460922	     -7.51388319	    -10.85336604	      0.49086831	      0.61760605	     29.65629225	      5.07898035	      0.51759994	     -0.52153488	      2.67617165	     -7.51388319	    -17.53354640	     -7.83483584	     -8.59708786	    -10.24821954	    -12.71868240	     24.69031092	     39.17060730	     90.00000001	      0.00000000	      0.00000000	     10.97030500	    -23.14447692	     15.41604272	     48.40093235	     90.00000001	      0.00000000	      0.00000000
      2.86000000	      2.69781616	      6.85155978	      6.07353147	      0.10307277	      0.99991795	      0.31771852	      6.32794579	     -6.62225843	    -20.91022629	      8.01679954	      0.87719806	      0.13991955	     -0.49771944	      6.52547559	     -7.51360046	     -9.66789880	      0.06988690	      0.86124918	     32.43094296	      5.67968108	      0.56602673	     -1.38828927	      1.94266333	     -7.51360046	    -17.75013561	     -7.94395310	     -8.42194568	     -9.59089487	    -12.85138326	     24.75541422	     39.39393552	     90.00000001	      0.00000000	      0.00000000	     10.42542228	    -23.19951979	     15.25744233	     48.37288940	     90.00000001	      0.00000000	      0.00000000
      2.87000000	      3.02201574	      7.18235004	      5.75851042	      0.10983911	      1.00119287	      0.31951955	      5.45326057	     -6.83687414	    -20.83890236	      7.88383981	      1.02746521	      0.13759896	     -0.25811824	      6.76579879	     -7.51343964	     -8.87456002	     -0.09239083	      1.19412788	     34.67032688	      6.47513921	      0.60511136	     -1.93005237	      1.72489364	     -7.51343964	    -18.13562282	     -8.38839069	     -7.92968401	     -8.93078685	    -12.94356631	     24.73687126	     39.61080174	     90.00000001	      0.00000000	      0.00000000	      9.99933173	    -23.25489282	     15.10489648	     48.32929246	     90.00000001	      0.00000000	      0.00000000
      2.88000000	      2.89581196	      6.84595206	      5.94856556	      0.11621686	      1.00151665	      0.32080937	      4.87168113	     -6.21742255	    -21.03175013	      7.18934369	      0.96164558	      0.12547772	     -0.12189287	      7.19277437	     -7.51306896	     -6.95506417	     -1.04103087	      1.30310347	     37.91018306	      6.99863836	      0.66165751	     -2.51330693	      0.35236217	     -7.51306896	    -17.99608978	     -8.03348107	     -7.84662059	     -8.19895476	    -13.19838149	     25.07737577	     39.83191075	     90.00000001	      0.00000000	      0.00000000	      9.22221956	    -23.22985549	     14.56294636	     48.43157301	     90.00000001	      0.00000000	      0.00000000
      2.89000000	      3.06275280	      6.93676339	      5.85323424	      0.12267810	      1.00229453	      0.32219009	      4.04215995	     -6.16685517	    -21.03297826	      6.76207286	      1.12125944	      0.11802044	      0.26946161	      7.43738716	     -7.51281850	     -5.66891435	     -1.41308388	      1.45597835	     40.36083869	      7.44638229	      0.70442952	     -2.81459758	     -0.33316859	     -7.51281850	    -18.19552428	     -8.17457496	     -7.53625588	     -7.45335316	    -13.38052058	     25.19992707	     40.01858617	     90.00000001	      0.00000000	      0.00000000	      8.64356468	    -23.24247618	     14.19128206	     48.43610812	     90.00000001	      0.00000000	      0.00000000
      2.90000000	      3.04841977	      6.82192757	      5.69777043	      0.12884781	      1.00263718	      0.32385552	      3.57377787	     -5.81102063	    -20.95985090	      6.45824065	      1.05255890	      0.11271756	      0.36038300	      7.60558331	     -7.51235270	     -4.09456698	     -2.08525129	      1.65465498	     42.73864153	      8.11765948	      0.74593001	     -2.89191869	     -1.22399084	     -7.51235270	    -18.18150545	     -8.15537875	     -7.12077879	     -6.62455322	    -13.63807333	     25.61690338	     40.16433029	     90.00000001	      0.00000000	      0.00000000	      7.96994947	    -23.16484581	     13.42509901	     48.47673358	     90.00000001	      0.00000000	      0.00000000
      2.91000000	      3.27867269	      6.95432139	      5.53736052	      0.13512379	      1.00340520	      0.32520401	      2.72274009	     -5.82391721	    -20.89390652	      6.09486592	      1.23684190	      0.10637548	      0.72363005	      7.83912624	     -7.51215187	     -2.88541642	     -2.34859304	      1.65914377	     44.68687097	      8.33675192	      0.77993303	     -2.83153142	     -1.83289741	     -7.51215187	    -18.46206440	     -8.34712531	     -6.72747032	     -5.79932609	    -13.80890130	     25.64967966	     40.28448796	     90.00000001	      0.00000000	      0.00000000	      7.39209387	    -23.19223522	     13.09981330	     48.46744045	     90.00000001	      0.00000000	      0.00000000
      2.92000000	      3.24359914	      6.79386713	      5.35309541	      0.14105724	      1.00358845	      0.32689258	      2.30244129	     -5.40271738	    -20.78086709	      5.76782505	      1.12121962	      0.10066754	      0.79848458	      8.00119810	     -7.51172797	     -1.26185691	     -3.03282824	      1.70897250	     46.59123563	      8.80400481	      0.81317046	     -2.64167866	     -2.71599955	     -7.51172797	    -18.42067299	     -8.31276424	     -6.28536479	     -4.87117259	    -14.06555972	     26.10267247	     40.34925990	     90.00000001	      0.00000000	      0.00000000	      6.71684656	    -23.09828099	     12.17350352	     48.50857293	     90.00000001	      0.00000000	      0.00000000
      2.93000000	      3.46893834	      6.93140541	      5.15534680	      0.14714476	      1.00426195	      0.32819185	      1.50805328	     -5.43130003	    -20.71029850	      5.46713383	      1.28053400	      0.09541949	      1.13490589	      8.20833467	     -7.51155075	     -0.05683361	     -3.24039702	      1.53932477	     47.97462631	      8.82048555	      0.83731519	     -2.25833451	     -3.30564284	     -7.51155075	    -18.69267238	     -8.52952587	     -5.85009064	     -3.97864509	    -14.23081071	     26.14522263	     40.36739588	     90.00000001	      0.00000000	      0.00000000	      6.17052533	    -23.11495348	     11.82844868	     48.45130559	     90.00000001	      0.00000000	      0.00000000
      2.94000000	      3.47878108	      6.82692650	      4.94519701	      0.15303933	      1.00449382	      0.32979066	      1.03874677	     -5.07401559	    -20.57412182	      5.13822375	      1.15465182	      0.08967892	      1.23604833	      8.42822171	     -7.51121034	      1.46900405	     -3.79224766	      1.32358849	     49.23065497	      8.94217692	      0.85923702	     -1.90839722	     -4.04585643	     -7.51121034	    -18.69582294	     -8.55886304	     -5.39623106	     -2.98343136	    -14.47425453	     26.59818437	     40.31763026	     90.00000001	      0.00000000	      0.00000000	      5.46803015	    -23.01255953	     10.85241345	     48.44856032	     90.00000001	      0.00000000	      0.00000000
      2.95000000	      3.60837090	      6.89254163	      4.73198889	      0.15896754	      1.00495560	      0.33105341	      0.40372862	     -4.98257735	    -20.49995547	      4.84246126	      1.16491235	      0.08451689	      1.49273343	      8.60605598	     -7.51093282	      2.78033321	     -4.04875787	      0.96045186	     50.05784182	      8.79416769	      0.87367416	     -1.38940248	     -4.63748857	     -7.51093282	    -18.84610681	     -8.72150749	     -4.96667395	     -1.97107534	    -14.69380196	     26.85561708	     40.22307700	     90.00000001	      0.00000000	      0.00000000	      4.85130112	    -22.94272269	     10.22273841	     48.35356036	     90.00000001	      0.00000000	      0.00000000
      2.96000000	      3.79198119	      7.02188150	      4.51646863	      0.16486686	      1.00549669	      0.33220279	     -0.26077994	     -5.03379601	    -20.52900824	      4.67028184	      1.28675570	      0.08151180	      1.77396580	      8.74835867	     -7.51079143	      3.98162440	     -4.20340310	      0.58004834	     50.51598251	      8.59647796	      0.88167022	     -0.82497563	     -5.05342177	     -7.51079143	    -19.06377087	     -8.93549542	     -4.47966998	     -1.02274133	    -14.87605155	     26.88840459	     40.15610181	     90.00000001	      0.00000000	      0.00000000	      4.34038061	    -22.95201752	      9.93555354	     48.18087515	     90.00000001	      0.00000000	      0.00000000
